<svg width="144" height="31" viewBox="0 0 144 31" fill="none" xmlns="http://www.w3.org/2000/svg">
<rect width="144" height="31" fill="#F5F5F5"/>
<path d="M-1044 -872C-1044 -873.105 -1043.1 -874 -1042 -874H677C678.105 -874 679 -873.105 679 -872V311C679 312.105 678.105 313 677 313H-1042C-1043.1 313 -1044 312.105 -1044 311V-872Z" fill="white"/>
<rect x="-943.5" y="-773.5" width="1511" height="981" fill="#FDD671"/>
<g filter="url(#filter0_d_0_1)">
<path d="M-701 -618C-701 -626.284 -694.284 -633 -686 -633H310C318.284 -633 325 -626.284 325 -618V52C325 60.2843 318.284 67 310 67H-686C-694.284 67 -701 60.2843 -701 52V-618Z" fill="white"/>
<path d="M-686 -632H310C317.732 -632 324 -625.732 324 -618V52C324 59.732 317.732 66 310 66H-686C-693.732 66 -700 59.732 -700 52V-618C-700 -625.732 -693.732 -632 -686 -632Z" stroke="black" stroke-width="2"/>
</g>
<path d="M49.3273 4.23739C47.3609 4.23691 45.4746 5.01625 44.082 6.40451C42.6894 7.79276 41.9042 9.67663 41.8985 11.643C41.8991 12.1779 41.7918 12.7074 41.5831 13.1999C41.3744 13.6924 41.0686 14.1378 40.6839 14.5094C40.2992 14.881 39.8435 15.1713 39.3441 15.3628C38.8447 15.5544 38.3118 15.6432 37.7772 15.6242H36.819C36.2843 15.6436 35.7513 15.555 35.2517 15.3636C34.7521 15.1722 34.2963 14.8819 33.9115 14.5102C33.5267 14.1385 33.2209 13.693 33.0123 13.2003C32.8038 12.7077 32.6968 12.178 32.6977 11.643V7.65735H38.7355V4.69779H32.7066V1.42505H29.8595V9.92632H29.6445C29.2547 8.30459 28.3303 6.86127 27.0204 5.82884C25.7104 4.79642 24.091 4.23499 22.4231 4.23499C20.7552 4.23499 19.1358 4.79642 17.8258 5.82884C16.5159 6.86127 15.5915 8.30459 15.2018 9.92632H14.9867V4.69779H12.1726V5.83004C11.2465 5.09415 10.1579 4.59037 8.9976 4.36074C7.83727 4.13111 6.63884 4.18229 5.50231 4.51C4.36577 4.83771 3.32407 5.43245 2.46412 6.2446C1.60417 7.05676 0.950903 8.06278 0.558813 9.17875C0.166724 10.2947 0.0471798 11.4883 0.210159 12.6598C0.373138 13.8314 0.813912 14.947 1.49571 15.9135C2.17751 16.8801 3.08056 17.6696 4.12953 18.2162C5.1785 18.7628 6.34297 19.0507 7.5258 19.0557C8.41269 19.0678 9.2881 18.8542 10.0697 18.435C10.8514 18.0158 11.5136 17.4047 11.9942 16.6592H12.1726V17.6219C12.1726 19.8034 10.0928 21.7262 7.34468 21.7262C6.15797 21.7271 4.98435 21.4784 3.90003 20.9962C2.81571 20.514 1.84495 19.8091 1.05081 18.9272H0.878611V22.3927C1.76993 23.2406 2.81986 23.9042 3.96819 24.3455C5.11652 24.7867 6.34066 24.997 7.57042 24.9642C9.53506 24.959 11.4181 24.1779 12.8095 22.7908C14.2009 21.4038 14.9879 19.5232 14.9992 17.5586V13.3722H15.2142C15.6012 14.9966 16.5245 16.4431 17.835 17.4781C19.1455 18.5131 20.7666 19.076 22.4365 19.076C24.1064 19.076 25.7275 18.5131 27.038 17.4781C28.3485 16.4431 29.2718 14.9966 29.6587 13.3722H30.0745C30.4039 14.7548 31.1234 16.0138 32.1475 16.9995C33.1715 17.9853 34.457 18.6562 35.8513 18.9327C37.2455 19.2091 38.6898 19.0795 40.0125 18.5591C41.3352 18.0387 42.4806 17.1495 43.3127 15.9971C44.0542 17.0308 45.0491 17.8565 46.2017 18.3949C47.3542 18.9333 48.6259 19.1664 49.8945 19.0717C51.1631 18.9771 52.3861 18.5579 53.446 17.8544C54.506 17.1509 55.3673 16.1867 55.9472 15.0545C56.5271 13.9222 56.8063 12.6599 56.7578 11.3886C56.7093 10.1174 56.3348 8.88 55.6703 7.79521C55.0057 6.71042 54.0735 5.81468 52.963 5.19398C51.8526 4.57329 50.6012 4.2485 49.3291 4.25078M8.04955 15.6376H7.0895C6.55541 15.6554 6.02318 15.5657 5.5245 15.3736C5.02581 15.1816 4.57086 14.8912 4.18672 14.5197C3.80258 14.1482 3.49711 13.7032 3.28848 13.2112C3.07986 12.7192 2.97235 12.1903 2.97235 11.6559C2.97235 11.1215 3.07986 10.5926 3.28848 10.1006C3.49711 9.60865 3.80258 9.16367 4.18672 8.79218C4.57086 8.42068 5.02581 8.13027 5.5245 7.93822C6.02318 7.74617 6.55541 7.65642 7.0895 7.6743H8.04955C8.58364 7.65642 9.11586 7.74617 9.61455 7.93822C10.1132 8.13027 10.5682 8.42068 10.9523 8.79218C11.3365 9.16367 11.6419 9.60865 11.8506 10.1006C12.0592 10.5926 12.1667 11.1215 12.1667 11.6559C12.1667 12.1903 12.0592 12.7192 11.8506 13.2112C11.6419 13.7032 11.3365 14.1482 10.9523 14.5197C10.5682 14.8912 10.1132 15.1816 9.61455 15.3736C9.11586 15.5657 8.58364 15.6554 8.04955 15.6376ZM27.0311 11.6564C27.0317 12.1913 26.9244 12.7208 26.7157 13.2133C26.507 13.7058 26.2012 14.1511 25.8165 14.5228C25.4318 14.8944 24.9761 15.1847 24.4767 15.3762C23.9773 15.5677 23.4444 15.6566 22.9098 15.6376H21.9542C21.4193 15.6572 20.8858 15.5688 20.3858 15.3776C19.8857 15.1864 19.4294 14.8963 19.044 14.5248C18.6585 14.1533 18.352 13.7078 18.1426 13.2151C17.9332 12.7225 17.8253 12.1926 17.8253 11.6573C17.8253 11.1219 17.9332 10.5921 18.1426 10.0994C18.352 9.6067 18.6585 9.16127 19.044 8.78973C19.4294 8.41819 19.8857 8.12816 20.3858 7.93697C20.8858 7.74578 21.4193 7.65736 21.9542 7.67698H22.9143C23.4488 7.65741 23.9818 7.7459 24.4813 7.93715C24.9808 8.1284 25.4366 8.41848 25.8214 8.79001C26.2062 9.16155 26.512 9.60691 26.7207 10.0994C26.9293 10.5919 27.0364 11.1215 27.0355 11.6564M53.9286 11.6564C53.9292 12.1913 53.8219 12.7208 53.6132 13.2133C53.4045 13.7058 53.0987 14.1511 52.714 14.5228C52.3293 14.8944 51.8736 15.1847 51.3742 15.3762C50.8748 15.5677 50.3419 15.6566 49.8073 15.6376H48.8508C48.3159 15.6572 47.7824 15.5688 47.2824 15.3776C46.7823 15.1864 46.326 14.8963 45.9406 14.5248C45.5551 14.1533 45.2486 13.7078 45.0392 13.2151C44.8298 12.7225 44.7219 12.1926 44.7219 11.6573C44.7219 11.1219 44.8298 10.5921 45.0392 10.0994C45.2486 9.6067 45.5551 9.16127 45.9406 8.78973C46.326 8.41819 46.7823 8.12816 47.2824 7.93697C47.7824 7.74578 48.3159 7.65736 48.8508 7.67698H49.8109C50.3454 7.65741 50.8784 7.7459 51.3779 7.93715C51.8774 8.1284 52.3332 8.41848 52.718 8.79001C53.1028 9.16155 53.4086 9.60691 53.6173 10.0994C53.8259 10.5919 53.933 11.1215 53.9322 11.6564" fill="#00CC33"/>
<path d="M125.123 15.6803H124.18C123.654 15.6997 123.13 15.6126 122.639 15.4242C122.148 15.2359 121.7 14.9502 121.322 14.5844C120.944 14.2185 120.644 13.78 120.439 13.2952C120.235 12.8104 120.131 12.2894 120.134 11.7634C120.133 11.2377 120.237 10.7172 120.442 10.233C120.647 9.74883 120.947 9.31084 121.324 8.94523C121.702 8.57961 122.15 8.29388 122.64 8.10509C123.131 7.9163 123.654 7.82832 124.18 7.84643H125.123C125.921 7.8236 126.708 8.04329 127.379 8.47653C128.051 8.90977 128.575 9.53623 128.883 10.2733L131.299 8.76634C130.614 7.24343 129.428 6.00135 127.939 5.24732C126.449 4.4933 124.746 4.27295 123.113 4.62303C121.48 4.97311 120.017 5.87245 118.968 7.171C117.918 8.46955 117.345 10.0888 117.345 11.7585C117.345 13.4282 117.918 15.0474 118.968 16.3459C120.017 17.6445 121.48 18.5438 123.113 18.8939C124.746 19.244 126.449 19.0236 127.939 18.2696C129.428 17.5156 130.614 16.2735 131.299 14.7506L128.87 13.2668C128.562 14.0004 128.04 14.6236 127.371 15.0544C126.702 15.4852 125.918 15.7034 125.123 15.6803Z" fill="#002E6D"/>
<path d="M65.3467 19.0952H62.5005V4.38211H65.3387V6.32006C65.7325 5.75186 66.2626 5.29167 66.8805 4.9817C67.6682 4.56457 68.5502 4.35775 69.4413 4.38122C70.3861 4.36019 71.3205 4.58265 72.1545 5.0272C72.8653 5.42246 73.4504 6.00999 73.8427 6.72246C74.3302 6.07301 74.9473 5.53189 75.6549 5.13341C76.3624 4.73493 77.1451 4.48775 77.9532 4.40757C78.7613 4.32738 79.5773 4.41592 80.3494 4.66757C81.1215 4.91922 81.8329 5.3285 82.4385 5.86948C82.9599 6.38321 83.3699 6.99881 83.643 7.67792C83.9161 8.35702 84.0464 9.08509 84.0258 9.81676V19.0764L81.1787 19.0934V10.5189C81.1961 9.59035 80.8795 8.68639 80.2864 7.9716C80.0115 7.67311 79.6716 7.44188 79.293 7.29582C78.9144 7.14977 78.5073 7.0928 78.1031 7.12933C77.6579 7.1168 77.2154 7.20146 76.8062 7.37744C76.3971 7.55341 76.0313 7.81646 75.7342 8.14826C75.0983 8.88103 74.7678 9.82984 74.8107 10.7991V19.0702H71.9663V10.5189C72.005 9.62411 71.7016 8.74811 71.1178 8.06886C70.7913 7.75157 70.4034 7.50439 69.9779 7.34251C69.5525 7.18063 69.0984 7.10748 68.6436 7.12754C68.1984 7.11471 67.7557 7.19924 67.3465 7.37524C66.9374 7.55123 66.5716 7.81444 66.2747 8.14648C65.5769 8.99539 65.2439 10.0862 65.3485 11.1801L65.3467 19.0952Z" fill="#002E6D"/>
<path d="M61.0525 4.37976H58.2169V19.0955H61.0525V4.37976Z" fill="#002E6D"/>
<path d="M59.6181 2.85333C59.2488 2.86103 58.8916 2.72174 58.625 2.46609C58.4924 2.34214 58.3874 2.19162 58.3168 2.02436C58.2462 1.8571 58.2117 1.67683 58.2155 1.49533C58.2119 1.31228 58.2465 1.13048 58.317 0.961516C58.3875 0.792547 58.4924 0.640104 58.625 0.51387C58.7556 0.384589 58.9107 0.282765 59.0813 0.214419C59.2519 0.146073 59.4344 0.112589 59.6181 0.115931C59.8052 0.111174 59.9913 0.143929 60.1656 0.212275C60.3398 0.28062 60.4986 0.383172 60.6326 0.51387C60.7654 0.640049 60.8705 0.79244 60.9413 0.961393C61.0121 1.13035 61.047 1.31217 61.0439 1.49533C61.0474 1.67697 61.0126 1.85731 60.9417 2.02458C60.8709 2.19185 60.7655 2.34229 60.6326 2.46609C60.359 2.72434 59.9942 2.8636 59.6181 2.85333Z" fill="#002E6D"/>
<path d="M141.124 15.5687C140.812 15.6351 140.494 15.6683 140.175 15.6677H139.215C138.68 15.6867 138.146 15.5974 137.646 15.4053C137.147 15.2131 136.691 14.922 136.306 14.5495C135.921 14.1769 135.616 13.7305 135.408 13.237C135.2 12.7435 135.094 12.2131 135.096 11.6776V7.68305H141.112V4.71813H135.104V1.43201H132.264V11.3609C132.26 12.0428 132.333 12.723 132.479 13.3889C132.732 14.4618 133.219 15.4651 133.907 16.3262C134.294 16.7893 134.727 17.212 135.199 17.5878C136.309 18.4372 137.637 18.9534 139.029 19.0761H139.04C139.112 19.0739 139.184 19.0781 139.255 19.0886H139.434C139.998 19.1057 140.563 19.0602 141.117 18.9529L141.124 15.5687Z" fill="#002E6D"/>
<path d="M92.7624 3.94019C91.0556 3.93772 89.4006 4.52669 88.079 5.6069V3.94019H85.239V25.6217H88.0746V17.1248C88.9967 17.8753 90.0857 18.3933 91.2497 18.6353C92.4138 18.8772 93.6189 18.8361 94.7638 18.5154C95.9086 18.1946 96.9597 17.6036 97.8286 16.792C98.6974 15.9804 99.3587 14.9721 99.7567 13.8517C100.155 12.7314 100.278 11.5318 100.116 10.354C99.9536 9.17616 99.511 8.05449 98.8251 7.08334C98.1392 6.11218 97.2301 5.31994 96.1743 4.77329C95.1185 4.22663 93.9469 3.94154 92.7579 3.94198M97.3574 11.3663C97.3586 11.9015 97.2518 12.4315 97.0436 12.9245C96.8353 13.4176 96.5297 13.8636 96.1452 14.2359C95.7607 14.6082 95.305 14.8991 94.8055 15.0913C94.306 15.2836 93.7729 15.3731 93.238 15.3546H92.2779C91.743 15.3725 91.2099 15.2826 90.7105 15.0903C90.211 14.8979 89.7554 14.607 89.3706 14.235C88.9859 13.8629 88.68 13.4172 88.471 12.9245C88.2621 12.4317 88.1544 11.902 88.1544 11.3668C88.1544 10.8315 88.2621 10.3018 88.471 9.80906C88.68 9.31631 88.9859 8.87063 89.3706 8.49856C89.7554 8.12648 90.211 7.83561 90.7105 7.64326C91.2099 7.45091 91.743 7.361 92.2779 7.37889H93.238C93.7733 7.35968 94.3069 7.4487 94.807 7.6406C95.3071 7.8325 95.7633 8.12335 96.1484 8.49573C96.5334 8.8681 96.8394 9.31436 97.0479 9.80776C97.2564 10.3012 97.3632 10.8316 97.3619 11.3672L97.3574 11.3663Z" fill="#002E6D"/>
<path d="M108.881 4.3092C107.412 4.3092 105.976 4.74479 104.755 5.56088C103.534 6.37697 102.582 7.53691 102.019 8.89402C101.457 10.2511 101.31 11.7445 101.597 13.1852C101.883 14.6259 102.591 15.9492 103.629 16.9879C104.668 18.0266 105.991 18.7339 107.432 19.0205C108.873 19.3071 110.366 19.16 111.723 18.5979C113.08 18.0358 114.24 17.0838 115.056 15.8624C115.873 14.6411 116.308 13.2051 116.308 11.7362C116.308 9.76645 115.526 7.87736 114.133 6.48453C112.74 5.09169 110.851 4.3092 108.881 4.3092ZM113.481 11.7362C113.482 12.2714 113.375 12.8014 113.167 13.2944C112.958 13.7875 112.653 14.2335 112.268 14.6058C111.884 14.9781 111.428 15.269 110.929 15.4612C110.429 15.6534 109.896 15.743 109.361 15.7245H108.401C107.866 15.7424 107.333 15.6525 106.834 15.4602C106.334 15.2678 105.879 14.9769 105.494 14.6049C105.109 14.2328 104.803 13.7871 104.594 13.2944C104.385 12.8016 104.278 12.2719 104.278 11.7367C104.278 11.2014 104.385 10.6717 104.594 10.179C104.803 9.68621 105.109 9.24054 105.494 8.86846C105.879 8.49639 106.334 8.20551 106.834 8.01316C107.333 7.8208 107.866 7.7309 108.401 7.74879H109.359C109.894 7.7297 110.428 7.81879 110.928 8.01071C111.427 8.20264 111.883 8.49345 112.268 8.86575C112.653 9.23804 112.959 9.68415 113.167 10.1774C113.375 10.6706 113.482 11.2008 113.481 11.7362Z" fill="#00CC33"/>
<path d="M116.314 4.3092C114.343 4.3092 112.454 5.09188 111.061 6.48505C109.667 7.87822 108.885 9.76776 108.885 11.738C108.885 13.7082 109.667 15.5978 111.061 16.991C112.454 18.3841 114.343 19.1668 116.314 19.1668V4.3092Z" fill="#00CC33"/>
<path d="M112.591 5.30859C111.54 5.91493 110.652 6.76771 110.004 7.79348C110.96 7.91844 111.839 8.38727 112.476 9.11252C113.113 9.83776 113.464 10.7699 113.464 11.735C113.464 12.7 113.113 13.6321 112.476 14.3574C111.839 15.0826 110.96 15.5515 110.004 15.6764C110.652 16.7025 111.54 17.5554 112.591 18.1613C113.72 17.5105 114.657 16.574 115.309 15.4458C115.961 14.3177 116.304 13.0378 116.304 11.735C116.304 10.4321 115.961 9.15221 115.309 8.02408C114.657 6.89596 113.72 5.95938 112.591 5.30859Z" fill="#002E6D"/>
<path d="M122.926 25.5389C122.805 25.4308 122.674 25.3349 122.534 25.2525C122.141 25.0236 121.694 24.9025 121.239 24.9014C120.785 24.9002 120.337 25.019 119.943 25.2458C119.549 25.4726 119.221 25.7994 118.993 26.1932C118.765 26.587 118.645 27.0339 118.645 27.4889C118.645 27.9438 118.765 28.3907 118.993 28.7845C119.221 29.1783 119.549 29.5051 119.943 29.7319C120.337 29.9587 120.785 30.0775 121.239 30.0763C121.694 30.0752 122.141 29.9541 122.534 29.7253C122.689 29.6347 122.833 29.528 122.965 29.4067C123.062 29.5786 123.203 29.7217 123.373 29.8216C123.543 29.9214 123.737 29.9744 123.934 29.9751H124.046V24.9036H123.934C123.724 24.9043 123.518 24.9643 123.34 25.0767C123.162 25.189 123.02 25.3492 122.929 25.5389M121.602 28.6617C121.536 28.6702 121.47 28.6744 121.404 28.6742H121.085C120.924 28.6818 120.763 28.6567 120.612 28.6004C120.461 28.544 120.323 28.4576 120.207 28.3464C120.09 28.2352 119.997 28.1014 119.934 27.9532C119.87 27.8051 119.838 27.6456 119.838 27.4844C119.838 27.3232 119.87 27.1637 119.934 27.0156C119.997 26.8674 120.09 26.7336 120.207 26.6224C120.323 26.5112 120.461 26.4248 120.612 26.3684C120.763 26.3121 120.924 26.287 121.085 26.2946H121.419C121.485 26.2942 121.552 26.2993 121.617 26.3098C121.905 26.3444 122.169 26.4831 122.361 26.6997C122.554 26.9163 122.66 27.1958 122.66 27.4853C122.66 27.7748 122.554 28.0543 122.361 28.2709C122.169 28.4875 121.905 28.6262 121.617 28.6608" fill="#002E6D"/>
<path d="M134.785 25.1819C134.291 24.8966 133.718 24.7821 133.153 24.8562C132.588 24.9302 132.063 25.1886 131.66 25.5914C131.257 25.9941 130.998 26.5186 130.924 27.0835C130.849 27.6484 130.963 28.2221 131.248 28.7155C131.533 29.2089 131.973 29.5945 132.499 29.8125C133.026 30.0304 133.609 30.0685 134.16 29.9208C134.71 29.7731 135.196 29.4479 135.543 28.9957C135.889 28.5434 136.077 27.9894 136.077 27.4197C136.076 26.9662 135.957 26.5207 135.73 26.128C135.503 25.7352 135.177 25.409 134.785 25.1819ZM133.85 28.601C133.783 28.6115 133.717 28.6166 133.65 28.6162H133.333C133.167 28.6338 132.999 28.6164 132.84 28.5649C132.681 28.5135 132.535 28.4291 132.41 28.3174C132.286 28.2057 132.187 28.0692 132.119 27.9166C132.051 27.764 132.016 27.5988 132.016 27.4317C132.016 27.2646 132.051 27.0995 132.119 26.9469C132.187 26.7943 132.286 26.6577 132.41 26.546C132.535 26.4343 132.681 26.35 132.84 26.2985C132.999 26.247 133.167 26.2296 133.333 26.2473H133.65C133.717 26.247 133.783 26.2512 133.85 26.2598C134.133 26.299 134.394 26.4396 134.582 26.6557C134.77 26.8717 134.874 27.1487 134.874 27.4353C134.874 27.7219 134.77 27.9988 134.582 28.2149C134.394 28.431 134.133 28.5716 133.85 28.6108" fill="#002E6D"/>
<path d="M100.475 25.2535C99.9818 24.9682 99.4082 24.8537 98.8432 24.9277C98.2782 25.0018 97.7535 25.2603 97.3505 25.6631C96.9474 26.0659 96.6886 26.5904 96.6142 27.1554C96.5398 27.7203 96.6539 28.294 96.9389 28.7874C97.2239 29.2808 97.6638 29.6664 98.1903 29.8842C98.7169 30.1021 99.3006 30.14 99.8509 29.9922C100.401 29.8443 100.887 29.519 101.234 29.0666C101.58 28.6142 101.768 28.0601 101.767 27.4903C101.767 27.037 101.647 26.5917 101.42 26.1991C101.193 25.8066 100.867 25.4804 100.475 25.2535ZM99.5409 28.6663C99.4746 28.6749 99.4079 28.6791 99.341 28.6788H99.0243C98.8633 28.6864 98.7024 28.6613 98.5514 28.605C98.4004 28.5486 98.2624 28.4622 98.1458 28.351C98.0291 28.2397 97.9363 28.106 97.8728 27.9578C97.8094 27.8097 97.7767 27.6501 97.7767 27.489C97.7767 27.3278 97.8094 27.1683 97.8728 27.0201C97.9363 26.872 98.0291 26.7382 98.1458 26.627C98.2624 26.5157 98.4004 26.4293 98.5514 26.373C98.7024 26.3166 98.8633 26.2915 99.0243 26.2992H99.341C99.408 26.2987 99.4748 26.3038 99.5409 26.3143C99.8248 26.3535 100.085 26.4942 100.273 26.7103C100.462 26.9263 100.565 27.2032 100.565 27.4899C100.565 27.7765 100.462 28.0534 100.273 28.2695C100.085 28.4856 99.8248 28.6271 99.5409 28.6663Z" fill="#002E6D"/>
<path d="M116.757 22.9802V25.4303C116.671 25.3651 116.582 25.3055 116.489 25.2518C116.084 25.0157 115.622 24.8941 115.154 24.9C114.685 24.9058 114.227 25.0389 113.828 25.285C113.429 25.5311 113.104 25.8809 112.888 26.2972C112.673 26.7135 112.574 27.1805 112.603 27.6483C112.633 28.1162 112.788 28.5674 113.054 28.9536C113.32 29.3398 113.685 29.6467 114.112 29.8413C114.538 30.0359 115.01 30.111 115.475 30.0585C115.941 30.0061 116.384 29.8281 116.757 29.5435C116.77 29.6617 116.826 29.771 116.914 29.8505C117.003 29.93 117.118 29.9741 117.237 29.9744H118.008V22.4939H117.246C117.117 22.4939 116.994 22.5451 116.903 22.6363C116.811 22.7275 116.76 22.8512 116.76 22.9802M115.561 28.6646C115.495 28.6732 115.429 28.6773 115.363 28.6771H115.044C114.883 28.6848 114.722 28.6596 114.571 28.6033C114.42 28.547 114.283 28.4605 114.166 28.3493C114.049 28.2381 113.956 28.1043 113.893 27.9562C113.829 27.808 113.797 27.6485 113.797 27.4873C113.797 27.3261 113.829 27.1666 113.893 27.0185C113.956 26.8703 114.049 26.7366 114.166 26.6253C114.283 26.5141 114.42 26.4277 114.571 26.3713C114.722 26.315 114.883 26.2899 115.044 26.2975H115.363C115.429 26.2971 115.495 26.3022 115.561 26.3127C115.845 26.3519 116.105 26.4925 116.293 26.7086C116.482 26.9247 116.585 27.2016 116.585 27.4882C116.585 27.7748 116.482 28.0517 116.293 28.2678C116.105 28.4839 115.845 28.6245 115.561 28.6637" fill="#002E6D"/>
<path d="M110.066 24.7913C109.832 24.774 109.597 24.81 109.379 24.8966C109.162 24.9831 108.966 25.118 108.808 25.291C108.808 25.2393 108.798 25.1882 108.778 25.1405C108.758 25.0928 108.729 25.0495 108.693 25.0131C108.656 24.9767 108.612 24.9479 108.565 24.9283C108.517 24.9088 108.466 24.8989 108.414 24.8993H107.574V29.5095C107.574 29.6385 107.626 29.7622 107.717 29.8534C107.808 29.9445 107.932 29.9958 108.061 29.9958H108.87V26.9764C108.858 26.7119 108.95 26.4533 109.126 26.2555C109.209 26.1682 109.309 26.0992 109.421 26.0531C109.532 26.007 109.652 25.9848 109.772 25.9878C109.893 25.9826 110.013 26.0038 110.125 26.0501C110.236 26.0963 110.336 26.1664 110.418 26.2555C110.577 26.443 110.661 26.6832 110.653 26.9291V29.5166C110.653 29.6456 110.704 29.7693 110.795 29.8605C110.886 29.9517 111.01 30.0029 111.139 30.0029H111.948V26.6695C111.955 26.4229 111.91 26.1777 111.817 25.9493C111.724 25.7209 111.585 25.5143 111.407 25.3427C111.23 25.166 111.018 25.0273 110.785 24.9353C110.553 24.8432 110.303 24.7997 110.053 24.8074" fill="#002E6D"/>
<path d="M140.582 25.3311C140.405 25.1541 140.194 25.0153 139.961 24.9232C139.729 24.8311 139.48 24.7878 139.23 24.7957C138.996 24.7784 138.761 24.8144 138.544 24.901C138.326 24.9875 138.131 25.1224 137.973 25.2954C137.973 25.2439 137.963 25.1928 137.943 25.1452C137.924 25.0976 137.895 25.0543 137.858 25.0179C137.822 24.9815 137.779 24.9526 137.731 24.933C137.683 24.9134 137.632 24.9035 137.581 24.9037H136.741V29.5139C136.741 29.6426 136.792 29.766 136.883 29.8571C136.974 29.9483 137.097 29.9997 137.226 30.0002H138.035V26.9808C138.024 26.7161 138.116 26.4574 138.293 26.2599C138.376 26.1726 138.476 26.1036 138.587 26.0575C138.699 26.0114 138.818 25.9892 138.939 25.9922C139.06 25.987 139.18 26.0082 139.291 26.0544C139.403 26.1007 139.503 26.1708 139.585 26.2599C139.744 26.4474 139.828 26.6876 139.819 26.9335V29.521C139.819 29.65 139.871 29.7737 139.962 29.8649C140.053 29.9561 140.177 30.0073 140.306 30.0073H141.115V26.6739C141.124 26.4258 141.081 26.1787 140.988 25.9483C140.896 25.7178 140.757 25.5091 140.58 25.3355" fill="#002E6D"/>
<path d="M105.516 25.3901V27.8384C105.528 28.1038 105.436 28.3635 105.259 28.562C105.177 28.6493 105.076 28.7182 104.965 28.7644C104.854 28.8105 104.734 28.8327 104.614 28.8297C104.493 28.8346 104.373 28.8132 104.261 28.767C104.149 28.7208 104.049 28.6508 103.968 28.562C103.806 28.3744 103.722 28.1329 103.731 27.8857V24.9038H102.9C102.771 24.9038 102.647 24.955 102.556 25.0462C102.464 25.1374 102.413 25.2611 102.413 25.3901V28.1703C102.407 28.417 102.452 28.6623 102.545 28.8908C102.638 29.1192 102.778 29.3257 102.956 29.4971C103.132 29.6744 103.344 29.8135 103.576 29.9056C103.809 29.9977 104.058 30.0409 104.308 30.0324C104.542 30.0503 104.777 30.0148 104.995 29.9287C105.214 29.8426 105.409 29.7082 105.568 29.5354C105.568 29.6644 105.619 29.7881 105.711 29.8793C105.802 29.9705 105.925 30.0217 106.054 30.0217H106.801V24.9038H105.998C105.87 24.9043 105.746 24.9557 105.656 25.0469C105.565 25.138 105.514 25.2614 105.514 25.3901" fill="#002E6D"/>
<path d="M129.58 22.9551C129.492 22.9526 129.404 22.968 129.322 23.0005C129.241 23.0331 129.166 23.082 129.104 23.1442C129.043 23.2037 128.995 23.2751 128.962 23.354C128.93 23.4328 128.914 23.5175 128.915 23.6029C128.913 23.6873 128.929 23.7712 128.962 23.8491C128.994 23.927 129.043 23.9972 129.104 24.0552C129.168 24.1148 129.243 24.1613 129.324 24.1919C129.406 24.2226 129.493 24.2367 129.58 24.2337C129.759 24.2406 129.934 24.1764 130.066 24.0552C130.127 23.9972 130.176 23.927 130.208 23.8491C130.241 23.7712 130.257 23.6873 130.255 23.6029C130.257 23.5168 130.242 23.4312 130.209 23.3515C130.176 23.2719 130.128 23.1998 130.066 23.1398C130.001 23.0782 129.925 23.0301 129.842 22.9982C129.758 22.9663 129.669 22.9514 129.58 22.9542" fill="#002E6D"/>
<path d="M128.913 29.5122C128.913 29.6412 128.964 29.7649 129.056 29.8561C129.147 29.9473 129.27 29.9985 129.399 29.9985H130.261V24.9038H128.922L128.913 29.5122Z" fill="#002E6D"/>
<path d="M95.1837 24.6165C95.1763 24.494 95.1943 24.3712 95.2365 24.2559C95.2787 24.1406 95.3442 24.0353 95.429 23.9465C95.5128 23.8655 95.6122 23.8025 95.7211 23.7611C95.83 23.7197 95.9462 23.7008 96.0626 23.7056H96.224V22.493H96.009C95.4601 22.4709 94.9226 22.6545 94.502 23.0078C94.3027 23.1889 94.1465 23.4124 94.0448 23.6617C93.943 23.911 93.8983 24.18 93.914 24.4488V24.903H92.9656V26.0165H93.8721V29.9977H94.6814C94.8104 29.9977 94.934 29.9464 95.0252 29.8552C95.1164 29.764 95.1676 29.6403 95.1676 29.5114V26.0165H95.8814C96.0101 26.016 96.1333 25.9645 96.2241 25.8734C96.3149 25.7823 96.3659 25.6589 96.3659 25.5302V24.9056H95.1685L95.1837 24.6165Z" fill="#002E6D"/>
<path d="M126.064 23.6487L125.849 23.6379H124.82V27.2123C124.817 27.4575 124.842 27.7023 124.893 27.9421C124.984 28.3286 125.161 28.6898 125.41 28.9994C125.549 29.1672 125.705 29.3194 125.877 29.4536C126.276 29.7599 126.754 29.9457 127.256 29.9889H127.516C127.72 29.9949 127.924 29.9781 128.124 29.9389V28.7184C128.011 28.741 127.896 28.7527 127.781 28.7532H127.538C127.345 28.7608 127.152 28.7292 126.972 28.6603C126.792 28.5914 126.627 28.4866 126.488 28.3523C126.35 28.2181 126.24 28.0571 126.165 27.879C126.09 27.701 126.052 27.5097 126.054 27.3167V26.0024H128.134V24.9023H126.054L126.064 23.6487Z" fill="#002E6D"/>
<path d="M141.005 1.43982H142.099V1.72801H141.734V2.60687H141.372V1.72801H141.006L141.005 1.43982Z" fill="#002E6D"/>
<path d="M142.257 1.43982H142.73L142.913 2.15361L143.092 1.43982H143.566V2.60687H143.27V1.71463L143.045 2.60687H142.777L142.548 1.71463V2.60687H142.253L142.257 1.43982Z" fill="#002E6D"/>
<rect x="-943.5" y="-773.5" width="1511" height="981" stroke="black"/>
<path d="M-1042 -873H677V-875H-1042V-873ZM678 -872V311H680V-872H678ZM677 312H-1042V314H677V312ZM-1043 311V-872H-1045V311H-1043ZM-1042 312C-1042.55 312 -1043 311.552 -1043 311H-1045C-1045 312.657 -1043.66 314 -1042 314V312ZM678 311C678 311.552 677.552 312 677 312V314C678.657 314 680 312.657 680 311H678ZM677 -873C677.552 -873 678 -872.552 678 -872H680C680 -873.657 678.657 -875 677 -875V-873ZM-1042 -875C-1043.66 -875 -1045 -873.657 -1045 -872H-1043C-1043 -872.552 -1042.55 -873 -1042 -873V-875Z" fill="black" fill-opacity="0.1"/>
<defs>
<filter id="filter0_d_0_1" x="-710" y="-638" width="1044" height="718" filterUnits="userSpaceOnUse" color-interpolation-filters="sRGB">
<feFlood flood-opacity="0" result="BackgroundImageFix"/>
<feColorMatrix in="SourceAlpha" type="matrix" values="0 0 0 0 0 0 0 0 0 0 0 0 0 0 0 0 0 0 127 0" result="hardAlpha"/>
<feOffset dy="4"/>
<feGaussianBlur stdDeviation="4.5"/>
<feComposite in2="hardAlpha" operator="out"/>
<feColorMatrix type="matrix" values="0 0 0 0 0 0 0 0 0 0 0 0 0 0 0 0 0 0 0.25 0"/>
<feBlend mode="normal" in2="BackgroundImageFix" result="effect1_dropShadow_0_1"/>
<feBlend mode="normal" in="SourceGraphic" in2="effect1_dropShadow_0_1" result="shape"/>
</filter>
</defs>
</svg>
